<svg xmlns="http://www.w3.org/2000/svg" width="1120" height="560" viewBox="0 0 1120 560" role="img" aria-labelledby="title desc">
  <title id="title">First-run onboarding workflow</title>
  <desc id="desc">A staged onboarding workflow from account inputs through OCR cleanup, multi-round account search, article evidence, finance classification, user review, source registry, and feed run.</desc>
  <defs>
    <marker id="arrow" viewBox="0 0 10 10" refX="8" refY="5" markerWidth="8" markerHeight="8" orient="auto-start-reverse">
      <path d="M 1 1 L 9 5 L 1 9" fill="none" stroke="#24292f" stroke-width="1.7" stroke-linecap="round" stroke-linejoin="round"/>
    </marker>
    <filter id="shadow" x="-10%" y="-20%" width="120%" height="150%">
      <feDropShadow dx="0" dy="6" stdDeviation="5" flood-color="#1f2328" flood-opacity="0.12"/>
    </filter>
    <style>
      .bg { fill: #fffdf8; }
      .title { font: 700 28px "Inter", "Segoe UI", sans-serif; fill: #1f2328; }
      .label { font: 700 17px "Inter", "Segoe UI", sans-serif; fill: #1f2328; }
      .small { font: 500 13px "Inter", "Segoe UI", sans-serif; fill: #57606a; }
      .box { stroke: #24292f; stroke-width: 2.4; filter: url(#shadow); }
      .rough { fill: none; stroke: #24292f; stroke-width: 1.2; opacity: .55; }
      .arrow { fill: none; stroke: #24292f; stroke-width: 2.2; stroke-linecap: round; stroke-linejoin: round; marker-end: url(#arrow); }
      .dash { stroke-dasharray: 8 8; }
      .tag { font: 700 12px "Inter", "Segoe UI", sans-serif; fill: #57606a; }
    </style>
  </defs>
  <rect class="bg" width="1120" height="560" rx="24"/>
  <text x="54" y="58" class="title">First-run onboarding</text>
  <text x="54" y="88" class="small">Bulk account intake is automated in stages; review is reserved for uncertain identity, classification, or manual correction rows.</text>

  <g transform="translate(54 145)">
    <rect class="box" x="0" y="0" width="184" height="98" rx="20" fill="#dff7ef"/>
    <path class="rough" d="M9 9 C54 2,131 3,177 10 M181 25 C188 54,184 78,176 90 M161 96 C115 101,56 98,10 90 M4 74 C1 45,2 22,9 9"/>
    <text x="92" y="35" text-anchor="middle" class="label">Account inputs</text>
    <text x="92" y="59" text-anchor="middle" class="small">CSV / JSON / screenshots</text>
    <text x="92" y="78" text-anchor="middle" class="small">recordings / article URLs</text>
  </g>

  <g transform="translate(298 145)">
    <rect class="box" x="0" y="0" width="164" height="98" rx="20" fill="#e8f1ff"/>
    <path class="rough" d="M9 8 C48 2,116 3,156 9 M160 24 C166 53,164 77,156 90 M143 96 C101 100,52 98,9 90 M5 73 C1 44,2 20,9 8"/>
    <text x="82" y="37" text-anchor="middle" class="label">Import</text>
    <text x="82" y="61" text-anchor="middle" class="small">OCR cleanup</text>
    <text x="82" y="79" text-anchor="middle" class="small">normalization</text>
  </g>

  <g transform="translate(522 145)">
    <rect class="box" x="0" y="0" width="172" height="98" rx="20" fill="#fff1e5"/>
    <path class="rough" d="M9 8 C50 2,122 3,165 10 M168 24 C174 53,171 76,164 90 M151 96 C108 101,55 98,10 89 M5 74 C1 45,3 21,9 8"/>
    <text x="86" y="36" text-anchor="middle" class="label">Multi-round</text>
    <text x="86" y="60" text-anchor="middle" class="label">account search</text>
    <text x="86" y="80" text-anchor="middle" class="small">strict matching first</text>
  </g>

  <g transform="translate(754 145)">
    <rect class="box" x="0" y="0" width="180" height="98" rx="20" fill="#fbefff"/>
    <path class="rough" d="M10 9 C52 2,128 3,172 10 M176 25 C183 54,179 78,171 90 M156 96 C113 101,57 99,10 89 M5 75 C1 45,3 22,10 9"/>
    <text x="90" y="36" text-anchor="middle" class="label">Latest-article</text>
    <text x="90" y="60" text-anchor="middle" class="label">evidence</text>
    <text x="90" y="80" text-anchor="middle" class="small">titles + links + dates</text>
  </g>

  <g transform="translate(754 334)">
    <rect class="box" x="0" y="0" width="180" height="98" rx="20" fill="#fff8c5"/>
    <path class="rough" d="M10 9 C51 2,130 3,173 10 M176 25 C182 54,179 78,171 90 M157 96 C113 101,56 99,10 89 M5 75 C1 45,3 22,10 9"/>
    <text x="90" y="36" text-anchor="middle" class="label">Finance</text>
    <text x="90" y="60" text-anchor="middle" class="label">classification</text>
    <text x="90" y="80" text-anchor="middle" class="small">taxonomy + LLM review</text>
  </g>

  <g transform="translate(498 334)">
    <rect class="box" x="0" y="0" width="196" height="98" rx="20" fill="#ffeef0"/>
    <path class="rough" d="M9 9 C58 2,139 3,188 10 M192 25 C199 54,195 78,187 90 M171 96 C121 101,61 99,10 89 M4 75 C1 45,2 22,9 9"/>
    <text x="98" y="36" text-anchor="middle" class="label">Review table</text>
    <text x="98" y="60" text-anchor="middle" class="small">only uncertain rows</text>
    <text x="98" y="79" text-anchor="middle" class="small">manual corrections</text>
  </g>

  <g transform="translate(272 334)">
    <rect class="box" x="0" y="0" width="166" height="98" rx="20" fill="#e6ffec"/>
    <path class="rough" d="M9 9 C49 2,118 3,159 10 M163 25 C169 54,166 78,158 90 M145 96 C103 101,53 98,10 89 M5 75 C1 45,2 22,9 9"/>
    <text x="83" y="37" text-anchor="middle" class="label">Source</text>
    <text x="83" y="61" text-anchor="middle" class="label">registry</text>
    <text x="83" y="80" text-anchor="middle" class="small">confirmed accounts</text>
  </g>

  <g transform="translate(54 334)">
    <rect class="box" x="0" y="0" width="158" height="98" rx="20" fill="#f6f8fa"/>
    <path class="rough" d="M9 9 C47 2,112 3,151 10 M154 25 C161 54,157 78,150 90 M137 96 C98 101,50 98,10 89 M4 75 C1 45,2 22,9 9"/>
    <text x="79" y="40" text-anchor="middle" class="label">Feed run</text>
    <text x="79" y="64" text-anchor="middle" class="small">refresh + export</text>
  </g>

  <path class="arrow" d="M244 194 C262 191,276 191,292 194"/>
  <path class="arrow" d="M468 194 C487 191,503 191,516 194"/>
  <path class="arrow" d="M700 194 C720 191,736 191,748 194"/>
  <path class="arrow" d="M846 250 C850 280,850 303,846 328"/>
  <path class="arrow" d="M748 383 C731 381,714 381,700 383"/>
  <path class="arrow" d="M492 383 C473 381,456 381,444 383"/>
  <path class="arrow" d="M266 383 C247 381,231 381,218 383"/>
  <path class="arrow dash" d="M610 250 C602 286,604 311,616 328"/>
  <text x="590" y="295" class="tag">strict match</text>
  <path class="arrow dash" d="M690 432 C697 472,631 493,520 489 C393 486,336 460,344 438"/>
  <text x="519" y="509" text-anchor="middle" class="tag">reviewed corrections return to registry</text>
</svg>
